# xmcd
#
# Track frame offsets: 
#        150
#        15489
#        34776
#        49979
#        69598
#        90410
#        105653
#        120338
#        137919
#        157217
#        173582
#        187532
#        206012
#        223210
#        237312
#        261940
#        278621
#
# Disc length: 3994 seconds
#
# Revision: 0
# Processed by: cddbd v1.5.2PL0 Copyright (c) Steve Scherf et al.
# Submitted via: ExactAudioCopy v0.95a5
#
DISCID=eb0f9811
DTITLE=Raphael - Une nuit au Chatelet
DYEAR=2007
DGENRE=Chanson
TTITLE0=Happe
TTITLE1=J'l'ai pas touchee
TTITLE2=C'est bon aujourd'hui
TTITLE3=1900
TTITLE4=Elegie funebre
TTITLE5=Ceci n'est pas un adieu
TTITLE6=Elisa
TTITLE7=Caravane
TTITLE8=Sur mon cou
TTITLE9=Les petits bateaux
TTITLE10=Saint-Etienne
TTITLE11=Des mots
TTITLE12=Sur la route
TTITLE13=Poste restante
TTITLE14=Ne partons pas faches
TTITLE15=Une petite cantate
TTITLE16=Et dans 150 ans
EXTD=
EXTT0=
EXTT1=
EXTT2=
EXTT3=
EXTT4=
EXTT5=
EXTT6=
EXTT7=
EXTT8=
EXTT9=
EXTT10=
EXTT11=
EXTT12=
EXTT13=
EXTT14=
EXTT15=
EXTT16=
PLAYORDER=
